<svg width="538" height="44" viewBox="0 0 538 44" fill="none" xmlns="http://www.w3.org/2000/svg">
<path d="M12.9087 19.8955C10.9545 19.8955 8.91734 19.5012 7 18.7951L7.47012 17.2086C9.22154 17.7588 11.1297 18.1531 12.9087 18.1531C15.3699 18.1531 16.6605 17.2911 16.6605 16.0806C16.6605 14.9709 15.6649 14.4207 12.2174 12.8342C8.77907 11.2385 7.42403 10.2298 7.42403 8.23974C7.42403 5.74535 9.37824 4.72742 13.0562 4.72742C14.5864 4.72742 16.937 5.03005 18.292 5.43355L17.9786 7.06591C16.4945 6.70826 14.6325 6.46982 13.0931 6.46982C10.4936 6.46982 9.43355 6.95586 9.43355 8.16638C9.43355 9.35855 10.2079 9.86293 13.849 11.5228C17.6837 13.2652 18.67 14.1456 18.67 15.9614C18.67 18.5933 16.1442 19.8955 12.8995 19.8955H12.9087Z" fill="white"/>
<path d="M49.0424 19.6479C48.4893 19.6479 48.0469 19.1893 48.0469 18.6574V4.94745H50.0656V17.8688H58.1037V19.657H49.0516L49.0424 19.6479Z" fill="white"/>
<path d="M76.835 19.6481L75.3048 15.8698H68.8061L67.2759 19.6481H65.2295L71.2028 5.36034C71.3595 4.98435 71.6913 4.78259 72.0692 4.78259C72.4472 4.78259 72.7606 4.98435 72.9173 5.36034L78.8906 19.6481H76.8442H76.835ZM72.06 7.69883L69.4237 14.3016H74.7056L72.0692 7.69883H72.06Z" fill="white"/>
<path d="M95.9084 19.6479L92.2673 13.687H87.4924V19.6479H85.4736V5.93787C85.4736 5.40598 85.9438 4.94745 86.4968 4.94745H92.7558C95.595 4.94745 97.4847 6.93746 97.4847 9.32181C97.4847 11.2201 96.3509 12.8525 94.4243 13.4302L98.2682 19.657H95.9176L95.9084 19.6479ZM92.6452 6.68986H87.4924V11.9446H92.6452C94.157 11.9446 95.4659 10.9908 95.4659 9.31264C95.4659 7.63442 94.157 6.68068 92.6452 6.68068V6.68986Z" fill="white"/>
<path d="M101.559 9.2669H99.8165C99.6505 9.2669 99.5215 9.13852 99.5215 8.98262V5.30522C99.5215 5.14932 99.6505 5.02094 99.8165 5.02094H101.264C102.149 5.02094 102.674 5.45195 102.674 6.1214C102.674 6.48822 102.453 6.81837 102.121 7.02012C102.619 7.16685 102.951 7.57035 102.951 8.05639C102.951 8.73501 102.379 9.27608 101.568 9.27608L101.559 9.2669ZM101.273 5.4978H100.102V6.85505H101.273C101.743 6.85505 102.084 6.56159 102.084 6.14891C102.084 5.74541 101.789 5.48863 101.273 5.48863V5.4978ZM101.559 7.33192H100.111V8.77169H101.559C102.056 8.77169 102.351 8.46907 102.351 8.03805C102.351 7.63455 102.038 7.33192 101.559 7.33192V7.33192Z" fill="white"/>
<path d="M106.802 9.26691L105.752 7.54284H104.369V9.26691H103.788V5.30522C103.788 5.14932 103.926 5.02094 104.083 5.02094H105.89C106.71 5.02094 107.254 5.59868 107.254 6.28647C107.254 6.83671 106.931 7.30441 106.369 7.46948L107.475 9.26691H106.793H106.802ZM105.862 5.52532H104.369V7.04763H105.862C106.295 7.04763 106.673 6.77251 106.673 6.28647C106.673 5.80043 106.295 5.52532 105.862 5.52532V5.52532Z" fill="white"/>
<path d="M33.2059 4.70905C29.0025 4.70905 25.5918 8.10215 25.5918 12.2839C25.5918 16.4657 29.0025 19.8588 33.2059 19.8588C37.4093 19.8588 40.8199 16.4657 40.8199 12.2839C40.8199 8.10215 37.4093 4.70905 33.2059 4.70905ZM33.2059 18.0522C30.0072 18.0522 27.4077 15.4661 27.4077 12.2839C27.4077 9.10174 30.0072 6.51565 33.2059 6.51565C36.4045 6.51565 39.004 9.10174 39.004 12.2839C39.004 15.4753 36.4045 18.0522 33.2059 18.0522Z" fill="white"/>
<path d="M35.4199 12.2839C35.4199 13.4944 34.4336 14.4756 33.2168 14.4756C32 14.4756 31.0137 13.4944 31.0137 12.2839C31.0137 11.0734 32 10.0921 33.2168 10.0921C34.4336 10.0921 35.4199 11.0734 35.4199 12.2839Z" fill="white"/>
<path d="M69.6173 40.2909C68.3636 39.4106 66.8242 39.0254 65.4323 39.0804C64.022 39.1354 63.3951 40.1809 63.3951 40.1809C62.7591 39.0804 61.5054 38.4018 59.5604 38.4201C56.4263 38.4568 53.3199 39.8966 50.8587 39.8966C48.4989 39.8966 46.7751 38.4201 46.8304 35.7974C46.9318 31.2029 50.831 27.0578 53.7531 25.187C55.4308 24.1141 56.8319 23.7931 57.7537 23.894C58.4266 23.9673 59.2286 24.7377 58.7216 25.8748C57.975 27.5347 56.9425 27.3971 56.9794 26.6085C56.9978 26.0949 57.3481 25.7648 57.6062 25.5905C57.7722 25.4805 58.0671 25.4438 58.2146 25.4438C58.3621 25.3154 58.4727 24.4075 57.2744 24.7101C56.0668 25.0128 54.6288 26.1866 53.2461 27.6998C51.8634 29.2129 49.7156 32.0833 49.1902 35.0912C48.9413 36.4852 49.1072 39.0346 52.4349 39.0071C55.2556 38.9795 59.413 37.1363 63.2384 37.1638C64.7225 37.1729 66.013 37.5764 67.0178 38.1909C68.0133 38.8053 69.1933 39.6857 69.6173 40.2909V40.2909ZM70.5206 31.9549H71.1014C71.1014 31.9549 68.2069 36.1183 66.5661 35.9349C65.6535 35.834 65.9209 34.7061 65.9209 34.7061C65.9209 34.7061 64.6303 36.2009 63.4597 35.9074C62.3904 35.6323 63.0817 33.8715 63.0817 33.8715C62.9619 33.9266 60.6482 36.5218 59.0258 35.8891C57.3297 35.238 58.2054 33.0645 58.528 32.4134C58.8046 31.8632 59.1088 31.3313 59.1088 31.3313C59.1088 31.3313 58.8507 31.4047 58.6847 31.4413C58.5188 31.478 58.2791 31.5239 58.2791 31.5239C58.2791 31.5239 57.4772 32.8261 56.9886 33.4772C56.5001 34.1283 54.4076 36.3568 53.1724 35.9166C51.9372 35.4764 52.2414 33.7615 52.9327 32.3951C54.0573 30.185 56.7121 27.4705 58.316 27.8832C59.9384 28.2958 58.5926 30.9094 58.5926 30.9094C58.5926 30.9094 58.9152 30.9461 59.6895 30.4234C60.8049 29.6714 62.2705 27.6356 63.856 27.874C64.6027 27.984 65.294 28.7452 64.3446 30.1941C64.0404 30.6618 63.5334 31.0745 63.137 30.6618C62.8974 30.4051 63.1094 29.9374 63.3583 29.6256C63.7178 29.1762 64.2155 29.2404 64.2155 29.2404C64.2155 29.2404 64.4736 28.6443 63.8099 28.6535C63.2661 28.6627 61.9018 29.919 61.1275 31.1846C60.4177 32.3492 59.3484 34.3301 60.4269 34.7611C61.4133 35.1554 63.2937 32.9361 64.1602 31.7715C65.0267 30.6068 67.0086 27.9657 68.677 27.8648C69.2486 27.8281 69.5896 28.3417 69.5896 28.3417L69.7832 28.0391H71.4424C71.4424 28.0391 68.3175 33.2388 68.0687 33.6331C67.8751 33.9449 67.6262 34.6327 68.3268 34.2475C69.0365 33.8624 70.5114 31.9732 70.5114 31.9732L70.5206 31.9549ZM57.6339 31.4322C57.6062 31.423 57.1822 31.3038 56.7766 31.047C56.371 30.7902 56.1774 30.4051 56.1682 30.3776C56.159 30.35 56.1406 30.3684 56.1221 30.3959C56.1037 30.4142 56.0207 30.5335 55.4216 31.3955C54.8316 32.2667 53.9559 34.0366 54.7763 34.3392C55.3017 34.5318 56.1867 33.6148 56.666 33.0095C57.1085 32.4409 57.6431 31.5697 57.6615 31.5239C57.68 31.478 57.6615 31.4597 57.6339 31.4505V31.4322ZM58.2884 28.6718C57.8551 28.3417 56.7397 29.112 56.7397 29.8915C56.7397 30.6985 57.7445 30.9186 57.8736 30.9278C57.8736 30.9278 57.9842 30.9553 58.0303 30.8636C58.0579 30.8086 58.1962 30.5518 58.3437 30.1575C58.5004 29.7631 58.694 28.9745 58.2884 28.6718V28.6718ZM66.7597 33.0095C67.4326 32.0925 69.2854 28.8828 69.2854 28.8828C69.2854 28.8828 69.2578 28.6627 69.0365 28.6443C68.7784 28.6351 68.3544 28.7177 67.5064 29.7723C66.6583 30.8269 66.0038 31.6706 65.5245 32.551C64.9991 33.5047 64.7686 34.1833 65.0728 34.3668C65.1558 34.4218 65.2848 34.4218 65.3954 34.4034C65.589 34.3576 65.8471 34.1558 66.2066 33.7523C66.3725 33.5597 66.5569 33.3121 66.7781 33.0095H66.7597ZM74.2263 28.0391H72.65L71.7559 29.4788H73.3321L74.2263 28.0391ZM94.681 38.3284C94.4874 38.3284 94.3215 38.4018 94.174 38.5394C94.0357 38.6769 93.9712 38.842 93.9712 39.0437C93.9712 39.2455 94.0357 39.4106 94.174 39.5481C94.3123 39.6857 94.4782 39.759 94.681 39.759C94.8746 39.759 95.0405 39.6857 95.188 39.5481C95.3263 39.4106 95.3908 39.2363 95.3908 39.0437C95.3908 38.842 95.3263 38.6769 95.188 38.5394C95.0497 38.4018 94.8838 38.3284 94.681 38.3284ZM95.5106 39.0346C95.5106 39.2638 95.4277 39.4564 95.271 39.6123C95.1143 39.7774 94.9115 39.8507 94.6902 39.8507C94.4598 39.8507 94.2662 39.7682 94.1003 39.6123C93.9436 39.4564 93.8606 39.2547 93.8606 39.0346C93.8606 38.8145 93.9343 38.6127 94.1003 38.4568C94.257 38.3009 94.4506 38.2184 94.681 38.2184C94.9115 38.2184 95.105 38.3009 95.2617 38.4568C95.4277 38.6219 95.5014 38.8145 95.5014 39.0346H95.5106ZM94.9022 38.8512C94.9022 38.787 94.8838 38.7411 94.8377 38.7136C94.8008 38.6953 94.7363 38.6861 94.6534 38.6861H94.5151V39.0162H94.6626C94.7271 39.0162 94.7824 39.0071 94.8101 38.9979C94.8654 38.9704 94.9022 38.9245 94.9022 38.8512V38.8512ZM94.3584 38.576H94.6718C94.7824 38.576 94.8654 38.5852 94.9207 38.6127C95.0129 38.6494 95.0682 38.7228 95.0682 38.8328C95.0682 38.9153 95.0405 38.9795 94.976 39.0162C94.9483 39.0346 94.9022 39.0529 94.8469 39.0621C94.9207 39.0712 94.976 39.0988 95.0036 39.1446C95.0313 39.1905 95.0497 39.2363 95.0497 39.2913V39.3555C95.0497 39.3739 95.0589 39.4014 95.0589 39.4197C95.0589 39.4472 95.0589 39.4656 95.0682 39.4656L95.0774 39.4748H94.9299V39.4656C94.9299 39.4656 94.9299 39.4656 94.9299 39.4564V39.4289V39.3555C94.9299 39.2455 94.9022 39.1813 94.8469 39.1538C94.8101 39.1354 94.7548 39.1263 94.6718 39.1263H94.5427V39.4839H94.386V38.5852L94.3584 38.576ZM97.5294 25.453C96.3587 26.1958 94.7455 26.8744 93.1969 26.7277C92.8005 27.1312 92.3857 27.5989 91.9617 28.1124C94.6534 28.6443 97.0132 26.9844 98.2668 25.563C99.0503 24.6826 99.4375 23.894 99.4375 23.894C99.4375 23.894 98.6908 24.7101 97.5386 25.453H97.5294ZM92.9111 37.6315C92.6899 37.9891 92.4318 38.6677 93.1693 38.2459C94.0726 37.7232 95.3447 35.7974 95.3447 35.7974H95.9254C95.9254 35.7974 95.1603 36.9987 94.1648 38.0992C93.2522 39.0988 92.1461 40.0158 91.3625 39.9241C90.4499 39.8232 90.7357 38.6219 90.7357 38.6219C90.7357 38.6219 89.4268 40.0066 88.5234 39.9058C87.3066 39.7774 87.6753 38.2734 87.6753 38.2734C87.6753 38.2734 86.2926 39.9608 85.3524 39.9058C83.8775 39.8232 84.2462 38.0258 84.6518 36.7786C84.8731 36.1092 85.0759 35.5773 85.0759 35.5773C85.0759 35.5773 84.9284 35.6139 84.615 35.6598C84.449 35.6873 84.1541 35.6965 84.1541 35.6965C84.1541 35.6965 83.5365 36.7786 83.0479 37.4297C82.5593 38.0808 80.4669 40.3093 79.2409 39.8691C78.1071 39.4564 78.4758 37.7232 79.1395 36.3476C80.1074 34.3392 82.8174 31.4597 84.3845 31.8357C86.0069 32.2208 84.4214 35.1738 84.4214 35.1738C84.4214 35.1738 84.4214 35.1829 84.4398 35.1921C84.4767 35.2013 84.5596 35.2104 84.7532 35.1738C85.0666 35.1096 85.3432 34.9995 85.3432 34.9995C85.3432 34.9995 86.9748 31.5972 88.7815 29.3688C90.5882 27.1403 94.1832 23.3071 95.5936 24.2333C95.9439 24.4625 95.7779 25.242 95.317 26.1958C95.1143 26.26 94.9022 26.315 94.681 26.3608C94.9944 25.8014 95.1972 25.3246 95.2617 24.9944C95.4738 23.8389 92.7729 26.2691 90.8463 28.8736C88.9198 31.4872 87.7675 33.844 87.7675 33.844C87.7675 33.844 88.1547 33.6239 88.7631 33.1379C89.3991 32.6243 90.2656 31.8357 91.215 30.8636C91.8511 30.2125 92.5977 29.3871 93.2983 28.4701C93.5103 28.4609 93.7131 28.4426 93.9159 28.4059C93.1324 29.4513 92.312 30.4051 91.6206 31.1112C90.8555 31.8815 90.0167 32.716 89.2977 33.3213C88.1454 34.2842 87.2605 34.8344 87.2605 34.8344C87.2605 34.8344 85.5736 38.2184 86.4954 38.4385C87.0301 38.5669 88.0994 36.9345 88.0994 36.9345C88.0994 36.9345 89.4913 34.8253 90.3209 33.8807C91.4639 32.5877 92.4503 31.8448 93.4274 31.8265C93.9989 31.8173 94.3399 32.4226 94.3399 32.4226L94.6073 32.0099H96.2665C96.2665 32.0099 93.1693 37.2463 92.9204 37.6406L92.9111 37.6315ZM83.5825 35.5681C83.5549 35.5589 83.1954 35.3939 82.8174 35.0821C82.4487 34.7703 82.2551 34.4126 82.2459 34.3943C82.2275 34.3667 82.2183 34.3851 82.1998 34.4126C82.1814 34.4309 82.1169 34.4951 81.5269 35.3572C80.937 36.2284 80.0244 38.0075 80.854 38.3101C81.3794 38.5027 82.2552 37.5856 82.7345 36.9804C83.177 36.4118 83.5918 35.6965 83.6194 35.6415C83.6471 35.5956 83.6194 35.5773 83.5918 35.5681H83.5825ZM84.4214 34.11C84.5781 33.7065 84.7717 32.927 84.3661 32.6243C83.9328 32.3034 82.8174 33.0645 82.8174 33.8532C82.8082 34.6602 83.601 35.0179 83.7946 35.0729C83.9052 35.1004 83.942 35.1004 83.9881 35.0087C84.025 34.9537 84.2739 34.5135 84.4306 34.1191L84.4214 34.11ZM93.9528 33.0095C93.9897 32.9453 94.0081 32.8995 94.0081 32.8995C94.0081 32.8995 93.9804 32.6702 93.7592 32.661C93.5011 32.6427 93.1508 32.6977 92.2382 33.7065C91.3257 34.7152 90.7726 35.5864 90.2932 36.4576C89.7678 37.4114 89.5558 38.1267 89.86 38.3101C89.943 38.3651 90.072 38.3651 90.1826 38.3376C90.3854 38.2917 90.6159 38.0992 90.9754 37.6957C91.1413 37.5031 91.3257 37.2371 91.5469 36.9345C92.1461 36.1183 93.6762 33.5231 93.9712 33.0003L93.9528 33.0095ZM89.9614 27.4063C88.6893 26.7552 87.7583 25.9665 86.7904 25.4713C85.8686 25.0036 85.2694 24.8019 84.5228 24.9027C84.4029 24.9211 84.2186 24.9761 84.2186 24.9761C84.2186 24.9761 84.6057 26.2783 83.0756 28.4792C81.5269 30.7077 80.1166 30.6894 79.7202 30.0841C79.2962 29.433 79.84 28.1216 80.7434 26.9478C81.6836 25.7189 83.3521 24.7101 83.3521 24.7101C83.3521 24.7101 82.8267 24.3892 81.5177 25.1228C80.2548 25.8381 78.061 27.5347 76.0422 30.4051C74.0235 33.2755 73.6179 34.8528 73.3229 36.1C73.0279 37.3472 73.2953 38.6769 74.6872 38.6769C76.0699 38.6769 77.683 36.5769 78.1347 35.8432C78.9828 34.486 79.5266 32.3951 78.3836 32.6794C77.8213 32.8169 77.3604 33.4497 77.0654 34.0458C76.7704 34.6602 76.6506 35.2563 76.6506 35.2563C76.6506 35.2563 76.1713 35.4305 75.526 35.9074C74.8808 36.3843 74.4659 36.8428 74.4659 36.8428C74.4659 36.8428 74.4659 35.8524 75.2679 34.2475C76.0607 32.6427 77.5263 31.8999 78.3467 31.8357C79.0934 31.7715 80.0613 32.4042 79.2409 34.7244C78.4205 37.0446 75.9961 39.8691 73.4427 39.9058C71.0922 39.9425 69.5528 36.9528 72.8251 31.744C76.4478 25.9757 80.6973 24.2058 82.08 24.0132C83.4627 23.8114 83.9052 24.4259 83.9052 24.4259C83.9052 24.4259 85.0574 23.894 86.5323 23.9948C88.2192 24.1049 89.5189 25.2971 91.2427 26.1224C90.791 26.5534 90.367 27.0028 89.9798 27.4155L89.9614 27.4063ZM83.6839 25.1503C83.6839 25.1503 82.6976 25.5355 81.5546 26.801C80.4023 28.0666 79.7386 29.4697 80.2364 29.8457C80.43 29.9832 80.8632 30.0107 81.656 29.2954C82.2736 28.7452 82.9096 28.0116 83.3337 26.9753C83.8499 25.7281 83.6839 25.1595 83.6839 25.1503V25.1503Z" fill="white"/>
<g clip-path="url(#clip0_1617_101)">
<path d="M158.263 39.0159H158.529V5.42426H152.177V33.2223C152.496 38.1917 156.535 38.9097 158.263 39.0159Z" fill="white"/>
<path d="M241.658 39.0159H241.924V14.0615H235.571V33.2225C235.891 38.1918 239.929 38.9098 241.658 39.0159Z" fill="white"/>
<path d="M186.754 14.1678H180.402V28.2533C180.402 29.4867 179.912 30.6696 179.04 31.5418C178.167 32.4141 176.984 32.904 175.751 32.904C174.517 32.904 173.335 32.4141 172.462 31.5418C171.59 30.6696 171.1 29.4867 171.1 28.2533V19.4564V14.2442H164.749V29.1828C164.825 34.9496 169.718 39.6004 175.748 39.6004C177.165 39.6286 178.573 39.3773 179.893 38.8608C181.213 38.3444 182.418 37.5731 183.439 36.5908C184.46 35.6085 185.278 34.4346 185.846 33.1361C186.413 31.8376 186.72 30.44 186.747 29.0232C186.751 28.9337 186.742 28.8441 186.72 28.7574C186.72 28.7538 186.721 28.7503 186.722 28.747C186.723 28.7437 186.725 28.7407 186.728 28.7382C186.73 28.7357 186.733 28.7337 186.736 28.7324C186.74 28.7312 186.743 28.7305 186.747 28.7306L186.754 14.1678Z" fill="white"/>
<path d="M203.283 19.7223C204.531 19.722 205.756 20.0637 206.824 20.7099C207.892 21.3563 208.763 22.2826 209.342 23.3885H197.223C197.807 22.2861 198.679 21.3629 199.746 20.7172C200.813 20.0715 202.035 19.7276 203.283 19.7223ZM212.717 28.8115H215.216C215.346 28.0746 215.408 27.3273 215.402 26.5789C215.402 19.5366 209.979 13.8233 203.283 13.8233C196.588 13.8233 191.164 19.5366 191.164 26.5782C191.164 33.6197 196.587 39.3338 203.283 39.3338C205.517 39.3078 207.701 38.6632 209.591 37.4716C211.482 36.28 213.005 34.5881 213.993 32.5832H206.552C205.679 33.0549 204.714 33.3314 203.724 33.3935C202.734 33.4556 201.742 33.3019 200.817 32.943C199.892 32.5841 199.056 32.0286 198.367 31.3149C197.678 30.6011 197.152 29.7462 196.825 28.8093H212.718L212.717 28.8115Z" fill="white"/>
<path d="M241.977 8.66688C241.977 9.30816 241.787 9.93504 241.43 10.4682C241.074 11.0014 240.568 11.417 239.975 11.6624C239.383 11.9078 238.731 11.9721 238.102 11.847C237.473 11.7218 236.896 11.413 236.442 10.9596C235.988 10.5061 235.68 9.92839 235.554 9.29943C235.429 8.67047 235.494 8.01854 235.739 7.42607C235.984 6.83361 236.4 6.32722 236.933 5.97093C237.467 5.61466 238.093 5.4245 238.734 5.4245C239.594 5.42792 240.416 5.77062 241.024 6.37795C241.631 6.98528 241.973 7.808 241.977 8.66688Z" fill="white"/>
<path d="M135.754 32.4516C134.242 32.454 132.786 31.8814 131.68 30.8501C130.575 29.8187 129.903 28.4057 129.801 26.8972V26.1006C129.878 24.942 130.291 23.831 130.991 22.9044C131.691 21.9777 132.646 21.2758 133.739 20.8849C134.833 20.4939 136.017 20.4309 137.145 20.7038C138.274 20.9767 139.298 21.5734 140.092 22.4206C140.886 23.2679 141.416 24.3287 141.615 25.4726C141.814 26.6166 141.675 27.7938 141.214 28.8596C140.753 29.9254 139.99 30.8332 139.02 31.4716C138.05 32.1098 136.915 32.45 135.754 32.4516ZM135.754 14.0355C133.653 14.0348 131.593 14.6142 129.801 15.7097V5.42426H123.476V33.2223C123.795 38.1658 127.834 38.9097 129.562 38.9891H129.827V37.2324C131.62 38.3279 133.68 38.9073 135.781 38.9066C142.318 38.9066 147.633 33.3255 147.633 26.4696C147.607 19.6128 142.291 14.0324 135.754 14.0324" fill="white"/>
<path d="M231.558 10.2082V5.4245H226.775C225.047 5.50088 221.008 6.24866 220.689 11.1913V13.9792H216.118V18.7629H220.689V33.2226C221.008 38.166 225.047 38.9099 226.775 38.9894H227.041V19.1907V18.7653H231.532V13.9792H227.014V10.2082H231.558Z" fill="white"/>
<path d="M253.67 19.5357V19.1103H257.948V14.3274H253.648V5.39764H253.382C251.654 5.47403 247.615 6.2218 247.295 11.1644V14.3533H244.635V19.137H247.292V33.1957C247.611 38.1392 251.65 38.8831 253.377 38.9625H257.842V33.7534H255.451C255.213 33.7554 254.976 33.7101 254.757 33.62C254.537 33.5299 254.336 33.3968 254.168 33.2285C254 33.0604 253.867 32.8603 253.777 32.6401C253.687 32.42 253.641 32.1841 253.643 31.9462V19.5357H253.67Z" fill="white"/>
</g>
<g clip-path="url(#clip1_1617_101)">
<path fill-rule="evenodd" clip-rule="evenodd" d="M334.474 5.52207C330.372 6.74489 327.395 9.73257 326.002 14.0263C325.716 14.907 325.588 16.0179 325.597 17.5537C325.616 21.1916 326.702 23.8778 329.168 26.3876C332.651 29.9335 337.722 30.9186 342.186 28.9167C344.587 27.8397 345.363 26.3455 344.474 24.5096C344.071 23.6769 343.765 23.3903 342.943 23.0766C341.932 22.6907 341.896 22.6942 340.547 23.3167C337.817 24.5764 335.249 24.2726 333.279 22.4569C331.805 21.098 331.215 19.7058 331.203 17.5617C331.188 14.7181 332.479 12.673 335.031 11.4986C336.101 11.0062 336.536 10.9354 337.895 11.0328C338.943 11.1075 339.794 11.3218 340.351 11.6503C342.136 12.7035 344.151 11.9736 344.723 10.0667C345.472 7.56583 342.419 5.38874 337.884 5.18956C336.435 5.12583 335.497 5.21731 334.474 5.52207ZM353.212 5.70126C351.722 6.10197 349.199 7.68317 347.848 9.0626C346.678 10.257 345.581 12.2751 345.147 14.0343C344.672 15.9567 344.735 20.0663 345.254 21.0406C346.852 24.0381 350.725 22.4783 350.285 19.0147C350.132 17.8091 350.515 15.5581 351.054 14.5034C351.633 13.3681 352.746 12.2586 353.893 11.6736C355.008 11.1045 357.589 11.0502 359.048 11.5651C359.598 11.7592 360.456 11.9179 360.955 11.9179C362.919 11.9179 364.086 9.73468 363.093 7.92021C361.959 5.84753 356.894 4.71031 353.212 5.70126ZM275.745 6.64307C275.39 6.83566 274.884 7.41627 274.62 7.93338C274.158 8.83826 274.143 9.20934 274.207 17.7862C274.272 26.3653 274.292 26.7239 274.76 27.3626C275.027 27.7275 275.634 28.2197 276.11 28.4565C277.246 29.0209 278.371 28.6794 279.274 27.4966L279.918 26.6526L279.988 17.9372C280.049 10.269 280.011 9.09858 279.667 8.19816C279.02 6.50456 277.275 5.81273 275.745 6.64307ZM289.442 6.44013C289.248 6.51114 288.84 6.7938 288.536 7.06823C287.73 7.79487 281.705 15.8229 281.438 16.5256C281.083 17.4601 281.17 18.3144 281.713 19.2078C282.604 20.6744 288.332 28.1633 288.829 28.5113C289.094 28.6971 289.797 28.8492 290.391 28.8492C291.265 28.8492 291.585 28.7262 292.076 28.2025C293.529 26.6498 293.277 25.6247 290.546 21.9847C289.351 20.3927 288.133 18.7504 287.84 18.3351L287.306 17.5798L290.041 13.9365C293.031 9.95267 293.37 9.14256 292.638 7.72738C292.051 6.59204 290.612 6.01238 289.442 6.44013ZM296.031 6.53066C293.891 7.40615 293.642 10.2473 295.601 11.4415C296.325 11.8831 296.777 11.9162 302.105 11.9169C306.918 11.9177 307.96 11.8567 308.641 11.5334C310.472 10.6645 310.67 8.10551 309.003 6.862C308.416 6.42461 307.962 6.38816 302.493 6.34207C298.938 6.31197 296.384 6.38651 296.031 6.53066ZM314.251 6.49845C313.528 6.79733 312.736 7.75889 312.482 8.6452C312.172 9.72363 312.183 25.418 312.494 26.5372C312.629 27.0209 313.096 27.7179 313.559 28.1245L314.385 28.8492H319.142C324.497 28.8492 325.123 28.6961 325.932 27.1885C326.453 26.2173 326.469 25.7419 326.012 24.8584C325.275 23.4333 324.613 23.2054 321.211 23.2054H318.131V16.0237C318.131 9.36737 318.097 8.77642 317.672 7.94325C317.002 6.62966 315.484 5.98839 314.251 6.49845ZM365.942 7.6867C364.786 8.15254 364.553 9.94327 365.547 10.7249C366.361 11.365 366.937 11.3403 367.642 10.6351C368.569 9.70835 368.391 8.37783 367.262 7.79393C366.896 7.60463 366.565 7.45671 366.526 7.46471C366.488 7.47294 366.225 7.57288 365.942 7.6867ZM365.552 8.35031C364.7 9.29141 365.358 10.7421 366.637 10.7421C367.296 10.7421 367.984 9.9943 367.984 9.27871C367.984 8.68588 367.144 7.92021 366.492 7.92021C366.189 7.92021 365.766 8.11374 365.552 8.35031ZM365.868 9.31563C365.868 9.84144 365.98 10.2718 366.117 10.2718C366.254 10.2718 366.305 10.1733 366.231 10.0529C365.968 9.62745 366.648 9.49929 366.954 9.9167C367.226 10.2894 367.257 10.2316 367.212 9.42357C367.167 8.61463 367.086 8.4994 366.515 8.43379C365.903 8.36325 365.868 8.41098 365.868 9.31563ZM366.231 8.84461C366.057 9.1261 366.499 9.40476 366.812 9.21122C367.075 9.04873 366.903 8.62568 366.573 8.62568C366.459 8.62568 366.305 8.72421 366.231 8.84461ZM364.244 12.6857C363.038 13.306 362.744 14.0538 362.68 16.6664C362.643 18.1891 362.489 19.3961 362.265 19.9132C360.756 23.4027 357.65 24.6829 353.698 23.4439C351.859 22.8673 350.769 23.1328 349.945 24.3572C349.264 25.3689 349.263 26.215 349.943 27.2236C351.446 29.4543 356.731 30.4601 360.342 29.2027C362.687 28.3857 365.475 26.1256 366.686 24.0577C367.984 21.8434 368.634 17.002 367.944 14.697C367.792 14.1907 367.312 13.4643 366.877 13.0824C366.026 12.3353 365.176 12.2071 364.244 12.6857ZM295.601 15.2162C293.934 16.2323 293.82 18.6088 295.385 19.7251C296.12 20.2493 296.323 20.2681 301.963 20.3363C306.859 20.3953 307.905 20.348 308.558 20.0386C310.59 19.074 310.677 16.102 308.701 15.0805C308.178 14.8099 306.845 14.74 302.211 14.7407C296.776 14.7414 296.326 14.7739 295.601 15.2162ZM295.468 23.724C293.707 25.0369 293.934 27.5439 295.899 28.4763C297.019 29.0077 307.461 29.0284 308.48 28.5012C310.595 27.4079 310.72 24.5901 308.701 23.5462C308.176 23.2743 306.839 23.2069 302.093 23.213C296.386 23.22 296.116 23.2407 295.468 23.724ZM325.891 31.9357C325.891 32.0166 326.209 32.1461 326.597 32.2237L327.302 32.3648V35.6342C327.302 39.0318 327.242 39.2509 326.244 39.4962C325.985 39.5599 326.673 39.6147 327.772 39.618C329.397 39.623 329.628 39.5828 329.007 39.4033C328.248 39.1842 328.243 39.1722 328.243 37.6893V36.1955L329.689 36.0909C330.903 36.0032 331.224 35.883 331.688 35.3443C332.325 34.6038 332.432 33.1999 331.907 32.4803C331.619 32.085 331.194 32.0081 328.732 31.9063C327.169 31.8416 325.89 31.8548 325.891 31.9357ZM347.168 31.9989C344.792 33.0343 343.998 36.4613 345.648 38.5591C346.322 39.4163 347.988 39.999 349.265 39.8238C350.377 39.6714 351.994 38.9951 351.994 38.6823C351.994 38.4427 352.053 38.434 350.935 38.8366C348.122 39.8504 345.88 38.4157 345.88 35.602C345.88 33.526 347.064 32.1414 348.84 32.1414C350.243 32.1414 350.998 32.5443 351.334 33.4717C351.74 34.5948 352.031 34.4422 351.948 33.1503C351.886 32.1974 351.794 32.0201 351.288 31.8804C350.291 31.605 347.916 31.6732 347.168 31.9989ZM328.537 32.2863C328.343 32.3716 328.243 32.9617 328.243 34.0168C328.243 35.5162 328.279 35.6269 328.814 35.7612C329.5 35.9333 330.557 35.5679 330.979 35.0129C331.412 34.4427 331.371 33.456 330.888 32.8657C330.482 32.3691 329.114 32.0321 328.537 32.2863ZM338.648 33.9775C337.772 34.9205 337.737 35.0096 338.281 34.9149C338.634 34.8535 338.671 35.087 338.616 36.9946C338.557 38.973 338.593 39.1717 339.064 39.5021C339.46 39.7786 339.733 39.8064 340.259 39.6232C341.12 39.3229 341.137 39.0572 340.295 39.0694L339.648 39.0786V36.9622V34.8457L340.272 34.9184C340.615 34.9584 340.966 34.8791 341.05 34.742C341.147 34.585 340.901 34.493 340.382 34.493C339.653 34.493 339.552 34.4175 339.486 33.8245L339.413 33.1557L338.648 33.9775ZM334.081 34.6604C333.26 35.1696 332.946 35.9007 332.946 37.301C332.946 38.2447 333.068 38.5718 333.656 39.2013C334.266 39.8544 334.481 39.943 335.178 39.8299C335.964 39.7022 337.156 39.0141 337.171 38.679C337.175 38.5887 336.801 38.6727 336.339 38.8658C334.976 39.4348 333.957 38.7992 333.835 37.3045L333.769 36.4918L335.415 36.3743C336.92 36.2668 337.068 36.2097 337.139 35.7083C337.32 34.4262 335.476 33.7946 334.081 34.6604ZM354.11 34.5612C353.764 34.7357 353.495 35.0967 353.457 35.4395L353.391 36.0215L353.888 35.3748C354.531 34.5377 355.675 34.4733 355.971 35.2573C356.238 35.9618 356.159 36.054 354.792 36.6419C353.095 37.3723 352.54 38.3317 353.252 39.3055C353.643 39.8398 354.925 39.8529 355.504 39.3288C356.007 38.8742 356.226 38.862 356.226 39.2886C356.226 39.8605 356.948 39.9235 357.6 39.4085L358.225 38.9142L357.637 38.9963C357.054 39.0779 357.049 39.0633 356.987 37.0797C356.933 35.3847 356.849 35.0183 356.432 34.6694C355.855 34.1871 354.937 34.1443 354.11 34.5612ZM359.166 34.715C358.295 35.1061 358.269 35.1442 358.813 35.2267C359.384 35.3135 359.401 35.3718 359.401 37.1903C359.401 38.9535 359.366 39.0823 358.813 39.3622C358.282 39.631 358.372 39.6585 359.754 39.6481C360.906 39.6394 361.152 39.5844 360.753 39.424C360.277 39.2324 360.224 39.0513 360.224 37.5987C360.224 36.169 360.293 35.9211 360.831 35.4158C361.403 34.8784 361.455 34.8697 361.743 35.2631C362.025 35.6495 362.057 35.6363 362.162 35.0868C362.255 34.5969 362.184 34.493 361.756 34.493C361.471 34.493 361.046 34.7046 360.812 34.9633C360.241 35.594 360.031 35.5557 360.167 34.8457C360.228 34.5224 360.24 34.2656 360.193 34.2752C360.145 34.2849 359.683 34.4829 359.166 34.715ZM364.038 34.6249C362.392 35.7774 362.429 38.8603 364.098 39.6206C364.999 40.0314 365.42 39.9719 366.42 39.2928C367.532 38.5368 367.429 38.3771 366.153 38.8785C365.253 39.2319 365.134 39.2319 364.595 38.878C364.003 38.4907 363.38 36.8869 363.697 36.5697C363.792 36.4754 364.61 36.3663 365.515 36.3275C367.106 36.259 367.159 36.2374 367.097 35.6813C367.062 35.365 366.86 34.9151 366.649 34.6818C366.17 34.1525 364.756 34.1215 364.038 34.6249ZM334.357 34.9633C333.714 35.6062 333.754 36.1391 334.445 36.1391C335.348 36.1391 336.473 35.8619 336.473 35.6394C336.473 35.3022 335.56 34.493 335.18 34.493C334.986 34.493 334.616 34.7046 334.357 34.9633ZM364.263 35.0372C363.317 36.0436 363.762 36.3604 365.603 35.9921C366.435 35.8256 366.538 35.4522 365.908 34.8822C365.321 34.3507 364.868 34.3935 364.263 35.0372ZM354.792 37.1465C353.904 37.7436 353.663 38.4926 354.213 38.949C355.082 39.6705 356.226 38.6661 356.226 37.182C356.226 36.4646 355.821 36.4545 354.792 37.1465Z" fill="white"/>
</g>
<g clip-path="url(#clip2_1617_101)">
<path d="M463.428 11.7864H456.636V29.3665H455.641V11.7864H448.806V10.7927H463.428V11.7864Z" fill="white"/>
<path d="M480.909 10.7939H485.971V11.8302H480.78C478.054 11.8302 475.79 12.9675 473.987 15.2423C473.187 16.3579 472.682 17.6105 472.473 19.0001L472.386 19.6482H481.731V20.6419H472.386C472.53 22.1108 473.021 23.5071 473.857 24.8315C474.903 26.2645 476.157 27.2573 477.62 27.8118C478.471 28.2152 479.653 28.4164 481.168 28.4164H485.969V29.3667H480.475C477.923 29.3667 475.63 28.3012 473.597 26.171C472.861 25.2348 472.343 24.3856 472.039 23.6223C471.579 22.2686 471.347 21.0887 471.347 20.0808C471.347 18.814 471.692 17.4027 472.385 15.8478C473.459 13.8971 474.988 12.4716 476.97 11.5713C478.22 11.0527 479.532 10.7939 480.909 10.7939Z" fill="white"/>
<path d="M503.452 10.7939H508.514V11.8302H503.322C500.532 11.8302 498.239 13.011 496.443 15.3717C495.433 16.8623 494.929 18.4598 494.929 20.1658C494.929 22.4623 495.881 24.5358 497.784 26.3854C498.931 27.3065 499.955 27.8544 500.856 28.0273C501.39 28.286 502.341 28.4155 503.71 28.4155H508.512V29.3658H503.018C500.466 29.3658 498.173 28.3003 496.14 26.17C495.404 25.2339 494.886 24.3846 494.582 23.6214C494.121 22.2677 493.89 21.0878 493.89 20.0798C493.89 18.8131 494.235 17.4017 494.928 15.8468C496.002 13.8961 497.531 12.4707 499.513 11.5704C500.763 11.0527 502.075 10.7939 503.452 10.7939Z" fill="white"/>
<path d="M517.429 19.6482H530.105V10.7939H531.057V29.3667H530.105V20.6419H517.429V29.3667H516.435V10.7939H517.429V19.6482Z" fill="white"/>
<path d="M457.216 35.5275C457.216 35.7193 457.188 35.8912 457.13 36.0443C457.073 36.1973 456.992 36.3277 456.889 36.4344C456.785 36.5421 456.66 36.6243 456.515 36.681C456.37 36.7386 456.208 36.767 456.032 36.767H455.128V34.2891H456.032C456.209 34.2891 456.37 34.3174 456.515 34.3751C456.66 34.4327 456.784 34.5149 456.889 34.6216C456.992 34.7293 457.074 34.8587 457.13 35.0117C457.187 35.1648 457.216 35.3367 457.216 35.5275ZM457.031 35.5275C457.031 35.3547 457.008 35.2007 456.959 35.0656C456.911 34.9305 456.844 34.8162 456.757 34.7227C456.67 34.6292 456.565 34.5584 456.443 34.5092C456.32 34.4601 456.184 34.4355 456.034 34.4355H455.309V36.6224H456.034C456.183 36.6224 456.32 36.5979 456.443 36.5487C456.565 36.4996 456.67 36.4288 456.757 36.3352C456.844 36.2417 456.912 36.1274 456.959 35.9923C457.007 35.8563 457.031 35.7014 457.031 35.5275Z" fill="white"/>
<path d="M461.195 36.7664H461.015V34.2885H461.195V36.7664Z" fill="white"/>
<path d="M466.222 36.6492C466.307 36.6492 466.385 36.6444 466.455 36.6359C466.525 36.6275 466.59 36.6142 466.651 36.5963C466.711 36.5783 466.768 36.5575 466.823 36.532C466.877 36.5066 466.931 36.4782 466.987 36.447V35.7801H466.51C466.497 35.7801 466.486 35.7763 466.478 35.7678C466.469 35.7593 466.464 35.7508 466.464 35.7395V35.6412H467.151V36.5217C467.088 36.5651 467.024 36.6039 466.958 36.6369C466.89 36.6709 466.82 36.6993 466.744 36.7219C466.669 36.7446 466.587 36.7625 466.499 36.7748C466.411 36.7871 466.315 36.7937 466.211 36.7937C466.033 36.7937 465.87 36.7635 465.721 36.703C465.573 36.6426 465.446 36.5575 465.34 36.447C465.235 36.3365 465.152 36.2033 465.094 36.0465C465.035 35.8897 465.006 35.7159 465.006 35.525C465.006 35.3342 465.035 35.1604 465.094 35.0045C465.152 34.8487 465.235 34.7155 465.343 34.6049C465.451 34.4944 465.581 34.4094 465.735 34.3489C465.889 34.2885 466.061 34.2582 466.252 34.2582C466.346 34.2582 466.434 34.2648 466.515 34.2771C466.595 34.2904 466.67 34.3093 466.739 34.3338C466.807 34.3584 466.872 34.3896 466.931 34.4264C466.991 34.4632 467.049 34.5058 467.103 34.553L467.056 34.6304C467.046 34.6484 467.03 34.6569 467.013 34.6569C467.002 34.6569 466.992 34.655 466.982 34.6503C466.964 34.6436 466.94 34.6267 466.906 34.6012C466.873 34.5757 466.827 34.5482 466.771 34.5209C466.714 34.4925 466.643 34.4679 466.557 34.4453C466.472 34.4236 466.368 34.4122 466.246 34.4122C466.085 34.4122 465.939 34.4377 465.81 34.4897C465.68 34.5407 465.569 34.6144 465.477 34.7098C465.386 34.8052 465.315 34.9223 465.265 35.0603C465.215 35.1982 465.19 35.3531 465.19 35.5241C465.19 35.6989 465.216 35.8566 465.266 35.9955C465.316 36.1344 465.386 36.2515 465.477 36.3478C465.568 36.4442 465.677 36.5179 465.804 36.5689C465.929 36.6237 466.069 36.6492 466.222 36.6492Z" fill="white"/>
<path d="M471.183 36.7664H471.002V34.2885H471.183V36.7664Z" fill="white"/>
<path d="M476.763 34.2885V34.4406H475.892V36.7664H475.713V34.4406H474.836V34.2885H476.763Z" fill="white"/>
<path d="M482.015 36.7664H481.876C481.86 36.7664 481.846 36.7616 481.836 36.7531C481.825 36.7446 481.817 36.7332 481.811 36.7191L481.518 35.9992H480.3L480.009 36.7191C480.004 36.7323 479.995 36.7427 479.984 36.7522C479.973 36.7616 479.959 36.7664 479.942 36.7664H479.805L480.82 34.2885H480.998L482.015 36.7664ZM480.353 35.8661H481.465L480.958 34.6144C480.949 34.5946 480.942 34.5719 480.933 34.5474C480.925 34.5218 480.917 34.4954 480.909 34.468C480.9 34.4963 480.893 34.5228 480.884 34.5474C480.876 34.5729 480.868 34.5955 480.86 34.6163L480.353 35.8661Z" fill="white"/>
<path d="M485.743 36.6142H486.92V36.7664H485.564V34.2885H485.743V36.6142Z" fill="white"/>
<path d="M495.551 34.5897C495.54 34.6095 495.525 34.6189 495.506 34.6189C495.49 34.6189 495.47 34.6085 495.447 34.5868C495.423 34.5651 495.39 34.5415 495.35 34.515C495.309 34.4886 495.257 34.465 495.196 34.4423C495.134 34.4206 495.058 34.4092 494.968 34.4092C494.878 34.4092 494.798 34.4224 494.73 34.448C494.661 34.4735 494.604 34.5084 494.557 34.5528C494.511 34.5972 494.476 34.6483 494.451 34.7068C494.428 34.7654 494.415 34.8268 494.415 34.891C494.415 34.9751 494.434 35.044 494.469 35.0998C494.505 35.1555 494.552 35.2018 494.611 35.2396C494.67 35.2783 494.736 35.3104 494.81 35.3369C494.885 35.3633 494.962 35.3889 495.039 35.4143C495.118 35.4398 495.195 35.4682 495.269 35.4994C495.344 35.5305 495.41 35.5693 495.468 35.6155C495.527 35.6619 495.575 35.7195 495.61 35.7884C495.646 35.8565 495.664 35.9415 495.664 36.0435C495.664 36.1474 495.646 36.2447 495.61 36.3363C495.575 36.428 495.523 36.5073 495.455 36.5754C495.388 36.6433 495.304 36.6963 495.206 36.7359C495.108 36.7747 494.995 36.7945 494.87 36.7945C494.706 36.7945 494.566 36.7652 494.448 36.7076C494.329 36.6499 494.225 36.5706 494.137 36.4704L494.186 36.393C494.2 36.375 494.216 36.3665 494.235 36.3665C494.245 36.3665 494.258 36.3732 494.275 36.3874C494.291 36.4015 494.311 36.4185 494.335 36.4393C494.359 36.4601 494.386 36.4818 494.419 36.5054C494.452 36.529 494.49 36.5517 494.533 36.5725C494.577 36.5933 494.626 36.6103 494.682 36.6244C494.739 36.6386 494.803 36.6452 494.874 36.6452C494.973 36.6452 495.061 36.6301 495.138 36.6008C495.215 36.5716 495.281 36.5309 495.333 36.479C495.386 36.428 495.427 36.3665 495.455 36.2957C495.484 36.2249 495.498 36.1493 495.498 36.069C495.498 35.9811 495.48 35.9093 495.444 35.8527C495.408 35.796 495.361 35.7488 495.302 35.711C495.244 35.6732 495.178 35.641 495.103 35.6155C495.028 35.5901 494.952 35.5646 494.874 35.54C494.795 35.5154 494.718 35.488 494.644 35.4578C494.569 35.4276 494.503 35.3889 494.445 35.3416C494.386 35.2944 494.339 35.2358 494.303 35.1649C494.267 35.0941 494.249 35.0063 494.249 34.8995C494.249 34.8164 494.265 34.7371 494.296 34.6596C494.327 34.5821 494.374 34.5141 494.435 34.4555C494.497 34.397 494.571 34.3497 494.661 34.3138C494.75 34.2779 494.852 34.26 494.967 34.26C495.096 34.26 495.212 34.2808 495.314 34.3214C495.416 34.362 495.509 34.4243 495.594 34.5084L495.551 34.5897Z" fill="white"/>
<path d="M500.827 34.2885V34.4378H499.52V35.4391H500.607V35.5846H499.52V36.618H500.827V36.7673H499.34V34.2885H500.827Z" fill="white"/>
<path d="M504.798 35.646V36.7664H504.62V34.2885H505.253C505.539 34.2885 505.754 34.3433 505.895 34.4538C506.036 34.5644 506.107 34.7259 506.107 34.9394C506.107 35.0338 506.091 35.1208 506.058 35.1982C506.025 35.2766 505.978 35.3446 505.916 35.4041C505.854 35.4627 505.781 35.5118 505.694 35.5496C505.607 35.5874 505.51 35.6129 505.401 35.6242C505.43 35.6422 505.454 35.6649 505.477 35.6941L506.331 36.7654H506.175C506.156 36.7654 506.14 36.7616 506.127 36.755C506.113 36.7484 506.101 36.7361 506.087 36.72L505.293 35.7149C505.273 35.6894 505.251 35.6715 505.228 35.6611C505.206 35.6507 505.17 35.6451 505.123 35.6451H504.798V35.646ZM504.798 35.5128H505.23C505.34 35.5128 505.439 35.4996 505.526 35.4731C505.613 35.4466 505.686 35.4089 505.747 35.3597C505.807 35.3106 505.853 35.252 505.885 35.1831C505.917 35.1141 505.932 35.0367 505.932 34.9507C505.932 34.774 505.875 34.6437 505.758 34.5587C505.642 34.4737 505.474 34.4311 505.253 34.4311H504.798V35.5128Z" fill="white"/>
<path d="M509.596 34.2885H509.738C509.754 34.2885 509.768 34.2932 509.778 34.3017C509.789 34.3102 509.797 34.3216 509.803 34.3357L510.648 36.3913C510.671 36.4451 510.689 36.5018 510.703 36.5633C510.716 36.5 510.733 36.4432 510.754 36.3913L511.598 34.3357C511.604 34.3225 511.612 34.3121 511.623 34.3027C511.634 34.2932 511.648 34.2885 511.665 34.2885H511.805L510.782 36.7664H510.622L509.596 34.2885Z" fill="white"/>
<path d="M515.6 36.7664H515.42V34.2885H515.6V36.7664Z" fill="white"/>
<path d="M521.363 36.3498C521.374 36.3498 521.384 36.3535 521.393 36.362L521.462 36.4376C521.412 36.4924 521.355 36.5415 521.294 36.5859C521.234 36.6294 521.167 36.6671 521.095 36.6984C521.024 36.7295 520.944 36.7531 520.858 36.7701C520.772 36.7871 520.678 36.7956 520.574 36.7956C520.403 36.7956 520.245 36.7654 520.102 36.705C519.959 36.6445 519.836 36.5595 519.734 36.4489C519.632 36.3384 519.551 36.2052 519.495 36.0484C519.438 35.8916 519.409 35.7178 519.409 35.527C519.409 35.339 519.438 35.167 519.498 35.0121C519.557 34.8572 519.639 34.723 519.747 34.6116C519.854 34.5001 519.982 34.4142 520.131 34.3527C520.281 34.2913 520.445 34.2611 520.626 34.2611C520.716 34.2611 520.799 34.2677 520.873 34.2809C520.948 34.2942 521.018 34.314 521.083 34.3386C521.148 34.3641 521.209 34.3953 521.266 34.4321C521.324 34.4699 521.379 34.5124 521.434 34.5615L521.379 34.6399C521.37 34.6541 521.356 34.6607 521.336 34.6607C521.326 34.6607 521.313 34.6541 521.296 34.6427C521.28 34.6305 521.258 34.6154 521.233 34.5974C521.208 34.5795 521.178 34.5596 521.143 34.5379C521.107 34.5162 521.064 34.4964 521.015 34.4784C520.966 34.4604 520.909 34.4453 520.845 34.433C520.78 34.4208 520.707 34.4151 520.626 34.4151C520.475 34.4151 520.337 34.4406 520.21 34.4926C520.084 34.5445 519.975 34.6182 519.884 34.7145C519.793 34.8109 519.722 34.9271 519.671 35.065C519.62 35.202 519.594 35.356 519.594 35.526C519.594 35.7008 519.62 35.8576 519.67 35.9955C519.72 36.1334 519.79 36.2496 519.878 36.345C519.967 36.4404 520.072 36.5132 520.193 36.5642C520.314 36.6152 520.445 36.6407 520.587 36.6407C520.676 36.6407 520.755 36.635 520.825 36.6237C520.895 36.6124 520.958 36.5944 521.017 36.5708C521.075 36.5472 521.129 36.5189 521.18 36.4848C521.23 36.4508 521.28 36.4111 521.33 36.3658C521.335 36.3611 521.341 36.3573 521.346 36.3545C521.349 36.3516 521.355 36.3498 521.363 36.3498Z" fill="white"/>
<path d="M526.671 34.2885V34.4378H525.365V35.4391H526.452V35.5846H525.365V36.618H526.671V36.7673H525.185V34.2885H526.671Z" fill="white"/>
<path d="M531.615 34.5897C531.605 34.6095 531.59 34.6189 531.57 34.6189C531.555 34.6189 531.535 34.6085 531.512 34.5868C531.488 34.5651 531.455 34.5415 531.414 34.515C531.374 34.4886 531.322 34.465 531.26 34.4423C531.199 34.4206 531.122 34.4092 531.033 34.4092C530.943 34.4092 530.863 34.4224 530.795 34.448C530.726 34.4735 530.669 34.5084 530.622 34.5528C530.575 34.5972 530.54 34.6483 530.516 34.7068C530.492 34.7654 530.48 34.8268 530.48 34.891C530.48 34.9751 530.498 35.044 530.534 35.0998C530.57 35.1555 530.617 35.2018 530.676 35.2396C530.734 35.2783 530.8 35.3104 530.875 35.3369C530.949 35.3633 531.026 35.3889 531.105 35.4143C531.183 35.4398 531.259 35.4682 531.334 35.4994C531.408 35.5305 531.474 35.5693 531.533 35.6155C531.592 35.6619 531.639 35.7195 531.675 35.7884C531.711 35.8565 531.729 35.9415 531.729 36.0435C531.729 36.1474 531.711 36.2447 531.675 36.3363C531.639 36.428 531.587 36.5073 531.52 36.5754C531.452 36.6433 531.369 36.6963 531.27 36.7359C531.172 36.7747 531.06 36.7945 530.935 36.7945C530.771 36.7945 530.63 36.7652 530.512 36.7076C530.394 36.6499 530.29 36.5706 530.201 36.4704L530.25 36.393C530.264 36.375 530.281 36.3665 530.3 36.3665C530.31 36.3665 530.323 36.3732 530.34 36.3874C530.356 36.4015 530.376 36.4185 530.399 36.4393C530.423 36.4601 530.451 36.4818 530.484 36.5054C530.517 36.529 530.555 36.5517 530.598 36.5725C530.641 36.5933 530.69 36.6103 530.748 36.6244C530.803 36.6386 530.867 36.6452 530.939 36.6452C531.037 36.6452 531.125 36.6301 531.202 36.6008C531.28 36.5716 531.345 36.5309 531.398 36.479C531.451 36.428 531.492 36.3665 531.52 36.2957C531.548 36.2249 531.562 36.1493 531.562 36.069C531.562 35.9811 531.545 35.9093 531.509 35.8527C531.473 35.796 531.425 35.7488 531.367 35.711C531.309 35.6732 531.242 35.641 531.168 35.6155C531.093 35.5901 531.017 35.5646 530.938 35.54C530.86 35.5154 530.783 35.488 530.709 35.4578C530.634 35.4276 530.568 35.3889 530.509 35.3416C530.451 35.2944 530.404 35.2358 530.368 35.1649C530.332 35.0941 530.314 35.0063 530.314 34.8995C530.314 34.8164 530.33 34.7371 530.361 34.6596C530.392 34.5821 530.438 34.5141 530.5 34.4555C530.561 34.397 530.636 34.3497 530.726 34.3138C530.815 34.2779 530.917 34.26 531.031 34.26C531.16 34.26 531.276 34.2808 531.378 34.3214C531.48 34.362 531.574 34.4243 531.658 34.5084L531.615 34.5897Z" fill="white"/>
<path d="M420.872 36.9946H409.202C407.877 36.9946 406.798 35.9167 406.798 34.5914V8.9733C406.798 8.26481 406.223 7.68952 405.515 7.68952H398.592C395.142 7.68952 391.966 8.8949 389.647 11.0818C386.789 13.7787 385.34 17.5952 385.34 22.4271C385.34 35.3613 397.174 35.8601 397.678 35.8742H403.638V36.9946H397.662C397.512 36.9899 384.22 36.4637 384.22 22.4271C384.22 17.274 385.787 13.1827 388.879 10.2675C391.406 7.88223 394.856 6.56915 398.593 6.56915H405.516C406.841 6.56915 407.919 7.64795 407.919 8.9733V34.5905C407.919 35.2971 408.495 35.8733 409.203 35.8733H420.873C422.958 35.8733 424.868 35.4718 426.553 34.6793C429.608 33.2396 433.248 30.0174 433.248 22.8437C433.248 17.9286 431.503 13.9601 428.063 11.0487C425.504 8.88261 422.111 7.68952 418.51 7.68952H413.212C412.506 7.68952 411.929 8.26481 411.929 8.9733V31.0159H410.809V8.9733C410.809 7.64795 411.887 6.56915 413.212 6.56915H418.51C422.376 6.56915 426.026 7.85672 428.788 10.1929C432.492 13.3272 434.37 17.5839 434.37 22.8437C434.37 30.6059 430.378 34.1153 427.03 35.6929C425.194 36.5563 423.123 36.9946 420.872 36.9946Z" fill="#FAFAFA"/>
<path d="M411.324 32.9402C412.123 32.9402 412.77 32.2927 412.77 31.494C412.77 30.6952 412.123 30.0477 411.324 30.0477C410.525 30.0477 409.878 30.6952 409.878 31.494C409.878 32.2927 410.525 32.9402 411.324 32.9402Z" fill="white"/>
<path d="M403.23 37.8809C404.029 37.8809 404.677 37.2333 404.677 36.4346C404.677 35.6358 404.029 34.9883 403.23 34.9883C402.432 34.9883 401.784 35.6358 401.784 36.4346C401.784 37.2333 402.432 37.8809 403.23 37.8809Z" fill="white"/>
<path d="M421.473 33.019H416.618C415.631 33.019 414.828 32.1773 414.828 31.1429V12.3764C414.828 11.3495 415.591 10.5145 416.528 10.5145H419.947C422.491 10.5145 424.889 11.4742 426.702 13.2162C429.11 15.5315 430.333 18.6706 430.333 22.5447C430.333 28.273 427.724 30.8718 425.535 32.0432C424.324 32.6912 422.957 33.019 421.473 33.019ZM416.528 11.5366C416.153 11.5366 415.848 11.9135 415.848 12.3773V31.1429C415.848 31.6143 416.193 31.9969 416.617 31.9969H421.472C422.787 31.9969 423.99 31.7097 425.051 31.1429C426.993 30.1038 429.31 27.7676 429.31 22.5456C429.31 18.9597 428.193 16.0691 425.992 13.953C424.371 12.3953 422.225 11.5366 419.946 11.5366H416.528Z" fill="url(#paint0_linear_1617_101)"/>
<path d="M402.132 33.0188H397.248C395.755 33.0188 394.382 32.691 393.166 32.0439C390.963 30.8726 388.338 28.2748 388.338 22.5454C388.338 18.6714 389.567 15.5323 391.991 13.216C393.813 11.4741 396.226 10.5153 398.783 10.5153H402.222C403.164 10.5153 403.93 11.3503 403.93 12.3772V31.1428C403.93 32.1771 403.123 33.0188 402.132 33.0188ZM398.783 11.5364C396.489 11.5364 394.328 12.3951 392.697 13.9538C390.483 16.0708 389.36 18.9614 389.36 22.5454C389.36 27.7675 391.69 30.1027 393.645 31.1428C394.712 31.7095 395.924 31.9977 397.248 31.9977H402.132C402.561 31.9977 402.909 31.6151 402.909 31.1437V12.3762C402.909 11.9133 402.601 11.5355 402.222 11.5355H398.783V11.5364Z" fill="white"/>
</g>
<path d="M0 1H34V42H0V1Z" fill="url(#paint1_linear_1617_101)"/>
<path d="M538 0H504V44H538V0Z" fill="url(#paint2_linear_1617_101)"/>
<defs>
<linearGradient id="paint0_linear_1617_101" x1="411.684" y1="16.1681" x2="429.11" y2="28.535" gradientUnits="userSpaceOnUse">
<stop stop-color="white"/>
<stop offset="1" stop-color="white"/>
</linearGradient>
<linearGradient id="paint1_linear_1617_101" x1="0" y1="27.855" x2="34" y2="27.855" gradientUnits="userSpaceOnUse">
<stop stop-color="#02020F"/>
<stop offset="1" stop-color="#02020F" stop-opacity="0"/>
</linearGradient>
<linearGradient id="paint2_linear_1617_101" x1="538" y1="28.82" x2="504" y2="28.82" gradientUnits="userSpaceOnUse">
<stop stop-color="#02020F"/>
<stop offset="1" stop-color="#02020F" stop-opacity="0"/>
</linearGradient>
<clipPath id="clip0_1617_101">
<rect width="134.681" height="35.2736" fill="white" transform="translate(123.476 4.86316)"/>
</clipPath>
<clipPath id="clip1_1617_101">
<rect width="94.063" height="34.8033" fill="white" transform="translate(274.157 5.09833)"/>
</clipPath>
<clipPath id="clip2_1617_101">
<rect width="147.508" height="31.8617" fill="white" transform="translate(384.22 6.56915)"/>
</clipPath>
</defs>
</svg>
