<svg width="32" height="32" viewBox="0 0 32 32" fill="none" xmlns="http://www.w3.org/2000/svg">
<path d="M20.2226 4.22262L32 16L20.2226 27.7774C19.6681 28.3319 19.0098 28.7718 18.2853 29.0719C17.5607 29.372 16.7842 29.5265 16 29.5265C15.2158 29.5265 14.4393 29.372 13.7147 29.0719C12.9902 28.7718 12.3319 28.3319 11.7774 27.7774L-6.03336e-07 16L11.7774 4.22262C12.8973 3.10271 14.4162 2.47355 16 2.47355C17.5838 2.47355 19.1027 3.10271 20.2226 4.22262V4.22262Z" fill="url(#paint0_linear_1630_99)"/>
<path d="M10.5042 21.56C10.5042 22.2966 9.90719 22.8938 9.17071 22.8938C8.43424 22.8938 7.83722 22.2966 7.83722 21.56C7.83722 20.8234 8.43424 20.2262 9.17071 20.2262C9.90719 20.2262 10.5042 20.8234 10.5042 21.56Z" fill="#FF0088"/>
<path d="M10.7924 19.1283L7.61719 19.698C7.61719 17.9951 8.18294 15.9006 9.15937 14.821C10.147 13.7302 11.3648 13.1848 12.8126 13.1848C13.4523 13.1848 14.0191 13.2961 14.5129 13.5187C15.0067 13.7302 15.4781 13.9751 15.927 14.2533C16.376 14.5316 16.8361 14.782 17.3075 15.0046C17.7901 15.2161 18.3344 15.3218 18.9405 15.3218C19.5802 15.3218 20.119 15.077 20.5567 14.5872C21.0056 14.0864 21.2301 13.4853 21.2301 12.7841L24.3394 12.2153C24.3394 13.9516 23.7665 16.1677 22.7789 17.1917C21.8025 18.2157 20.5903 18.7276 19.1425 18.7276C18.3681 18.7276 17.7284 18.6219 17.2233 18.4104C16.7183 18.1878 16.2693 17.9374 15.8765 17.6591C15.4837 17.3809 15.0685 17.136 14.6307 16.9246C14.193 16.702 13.6543 16.5907 13.0146 16.5907C12.3749 16.5907 11.8417 16.8411 11.4153 17.3419C11 17.8317 10.7924 18.4271 10.7924 19.1283Z" fill="url(#paint1_linear_1630_99)"/>
<path d="M24.102 10.336C24.102 11.0726 23.505 11.6698 22.7685 11.6698C22.032 11.6698 21.435 11.0726 21.435 10.336C21.435 9.59936 22.032 9.0022 22.7685 9.0022C23.505 9.0022 24.102 9.59936 24.102 10.336Z" fill="#2824D5"/>
<defs>
<linearGradient id="paint0_linear_1630_99" x1="4.8318" y1="21.5277" x2="28.3673" y2="9.8776" gradientUnits="userSpaceOnUse">
<stop stop-color="#2824D5"/>
<stop offset="1" stop-color="#FF0088"/>
</linearGradient>
<linearGradient id="paint1_linear_1630_99" x1="15.9783" y1="9.0022" x2="15.9783" y2="22.8938" gradientUnits="userSpaceOnUse">
<stop stop-color="white"/>
<stop offset="1" stop-color="white" stop-opacity="0.7"/>
</linearGradient>
</defs>
</svg>
