<svg width="369" height="368" viewBox="0 0 369 368" fill="none" xmlns="http://www.w3.org/2000/svg">
<path d="M232.755 48.5461L368.018 183.947L232.755 319.348C226.387 325.723 218.826 330.78 210.505 334.23C202.184 337.68 193.265 339.456 184.259 339.456C175.252 339.456 166.334 337.68 158.013 334.23C149.692 330.78 142.131 325.723 135.762 319.348L0.499927 183.947L135.762 48.5461C148.624 35.6709 166.069 28.4377 184.259 28.4377C202.449 28.4377 219.893 35.6709 232.755 48.5461Z" fill="url(#paint0_linear_2026_4115)"/>
<path d="M121.149 247.868C121.149 256.337 114.292 263.202 105.834 263.202C97.3753 263.202 90.5185 256.337 90.5185 247.868C90.5185 239.399 97.3753 232.534 105.834 232.534C114.292 232.534 121.149 239.399 121.149 247.868Z" fill="#FF0088"/>
<path d="M124.458 219.912L87.9915 226.462C87.9915 206.884 94.4891 182.804 105.703 170.392C117.046 157.852 131.032 151.581 147.66 151.581C155.007 151.581 161.517 152.861 167.188 155.42C172.86 157.852 178.274 160.667 183.429 163.866C188.585 167.065 193.87 169.944 199.284 172.503C204.827 174.934 211.078 176.15 218.039 176.15C225.386 176.15 231.573 173.335 236.6 167.704C241.756 161.946 244.334 155.036 244.334 146.975L280.045 140.436C280.045 160.397 273.466 185.875 262.122 197.647C250.908 209.419 236.987 215.305 220.359 215.305C211.465 215.305 204.118 214.09 198.317 211.659C192.517 209.099 187.361 206.22 182.849 203.021C178.338 199.822 173.569 197.007 168.542 194.576C163.515 192.017 157.327 190.737 149.98 190.737C142.633 190.737 136.51 193.616 131.612 199.374C126.843 205.005 124.458 211.851 124.458 219.912Z" fill="url(#paint1_linear_2026_4115)"/>
<path d="M277.318 118.829C277.318 127.298 270.461 134.164 262.003 134.164C253.545 134.164 246.688 127.298 246.688 118.829C246.688 110.361 253.545 103.495 262.003 103.495C270.461 103.495 277.318 110.361 277.318 118.829Z" fill="#2824D5"/>
<defs>
<linearGradient id="paint0_linear_2026_4115" x1="55.9928" y1="247.497" x2="326.405" y2="113.78" gradientUnits="userSpaceOnUse">
<stop stop-color="#2824D5"/>
<stop offset="1" stop-color="#FF0088"/>
</linearGradient>
<linearGradient id="paint1_linear_2026_4115" x1="184.018" y1="103.495" x2="184.018" y2="263.202" gradientUnits="userSpaceOnUse">
<stop stop-color="white"/>
<stop offset="1" stop-color="white" stop-opacity="0.7"/>
</linearGradient>
</defs>
</svg>
